<svg xmlns="http://www.w3.org/2000/svg"
  xmlns:xlink="http://www.w3.org/1999/xlink" version="1.1" x="0px" y="0px" viewBox="0 0 100 100" style="enable-background:new 0 0 100 100;" xml:space="preserve">
  <path fill="#F72585" filter= "drop-shadow(0px 0px 4px #b984db)" d="M79.67,36.1l-38,58C41.29,94.67,40.66,95,40,95c-0.26,0-0.52-0.05-0.77-0.15c-0.89-0.37-1.39-1.32-1.19-2.26L45.54,57H22  c-0.62,0-1.2-0.28-1.58-0.77c-0.38-0.49-0.51-1.12-0.36-1.72l12-48C32.28,5.62,33.08,5,34,5h36c0.73,0,1.41,0.4,1.76,1.04  s0.32,1.42-0.07,2.04L55.66,33H78c0.73,0,1.41,0.4,1.76,1.05C80.11,34.7,80.08,35.48,79.67,36.1z"/>
</svg>